<!DOCTYPE svg PUBLIC "-//W3C//DTD SVG 1.1//EN" "http://www.w3.org/Graphics/SVG/1.1/DTD/svg11.dtd">
<!-- Uploaded to: SVG Repo, www.svgrepo.com, Transformed by: SVG Repo Mixer Tools -->
<svg width="64px" height="64px" viewBox="0 0 24 24" fill="none" xmlns="http://www.w3.org/2000/svg">
<g id="SVGRepo_bgCarrier" stroke-width="0"/>
<g id="SVGRepo_tracerCarrier" stroke-linecap="round" stroke-linejoin="round"/>
<g id="SVGRepo_iconCarrier">
<path fill-rule="evenodd" clip-rule="evenodd" d="M4.573 4.18A1 1 0 0 0 3 5v14a1 1 0 0 0 1.573.82L10 16.02V19a1 1 0 0 0 1.573.82l10-7a1 1 0 0 0 0-1.64l-10-7A1 1 0 0 0 10 5v2.98l-5.427-3.8ZM12 9.38l2.573 1.8a1 1 0 0 1 0 1.64L12 14.62v2.46L19.256 12 12 6.92v2.46Z" fill="#ffffff"/>
</g>
</svg>