<svg width="32" height="32" viewBox="0 0 32 32" fill="none" xmlns="http://www.w3.org/2000/svg">
<path fill-rule="evenodd" clip-rule="evenodd" d="M22 6C22.5523 6 23 5.55228 23 5C23 4.44772 22.5523 4 22 4C21.4477 4 21 4.44772 21 5C21 5.55228 21.4477 6 22 6ZM13.756 7.04181L14.7294 10.0505L13.6897 14.5415L9.72079 11.0063L10.2429 8.51079L13.756 7.04181ZM27 12C27 12.5523 26.5523 13 26 13C25.4477 13 25 12.5523 25 12C25 11.4477 25.4477 11 26 11C26.5523 11 27 11.4477 27 12ZM28 20H4V18.9333L4.46154 15.7333L7.23077 14.1333L9.53846 13.6L10.4615 16.2667L12.3077 15.2L15.0769 17.3333V15.2L17.3846 12L21.0769 12.5333L21.5385 14.6667L22.9231 17.3333L25.6923 16.2667L28 20ZM3 21C2.44772 21 2 21.4477 2 22V27C2 27.5523 2.44771 28 3 28H29C29.5523 28 30 27.5523 30 27V22C30 21.4477 29.5523 21 29 21H3ZM5.5 26C6.32843 26 7 25.3284 7 24.5C7 23.6716 6.32843 23 5.5 23C4.67157 23 4 23.6716 4 24.5C4 25.3284 4.67157 26 5.5 26ZM14 24.5C14 25.3284 13.3284 26 12.5 26C11.6716 26 11 25.3284 11 24.5C11 23.6716 11.6716 23 12.5 23C13.3284 23 14 23.6716 14 24.5ZM19.5 26C20.3284 26 21 25.3284 21 24.5C21 23.6716 20.3284 23 19.5 23C18.6716 23 18 23.6716 18 24.5C18 25.3284 18.6716 26 19.5 26ZM28 24.5C28 25.3284 27.3284 26 26.5 26C25.6716 26 25 25.3284 25 24.5C25 23.6716 25.6716 23 26.5 23C27.3284 23 28 23.6716 28 24.5Z" fill="black"/>
</svg>
