<svg width="32" height="32" viewBox="0 0 32 32" fill="none" xmlns="http://www.w3.org/2000/svg">
<path fill-rule="evenodd" clip-rule="evenodd" d="M10.0914 12H17.2621C18.0808 12 18.756 12.678 18.756 13.5C18.756 14.322 18.0808 15 17.2621 15H10.0914C9.26682 15 8.59756 14.328 8.59756 13.5C8.59756 12.672 9.26682 12 10.0914 12ZM8.59756 8.4H10.3902V6H13.378L15.1707 8.4V11.4H8L8.59756 8.4ZM14.2504 8.4L13.0792 6.9H11.5853V8.4H14.2504ZM15.3141 3.846L18.3019 3L19.9511 8.898C20.1543 9.666 19.7061 10.464 18.9353 10.68L18.2421 10.872L16.2762 9.174L18.5947 8.526L17.4713 4.476L15.8041 4.944C15.4695 5.118 14.7464 5.604 14.2923 6.222L13.6768 5.4H13.4139C14.1377 4.48291 15.1762 3.92069 15.3033 3.8519L15.3141 3.846ZM0 16.1071V18.0664V20.0257V21.5V28H24L17 17H10.5L3.72 11H0V16.1071ZM28.5766 24.7524L26.0766 24.2524L23.5766 26.2524L26.5766 29.2524H29.0766L31.6283 27.6686L28.5766 24.7524ZM19.0432 16.0878L22.0432 15.0878L26.5432 16.0878L23.0432 20.0878L20.5432 19.5878L19.0432 16.0878ZM28.0688 23.0853L31.227 22.9238L30.7173 19.1502L28.442 18L24 20.9187L28.0688 23.0853ZM24 23C24 23.5523 23.5523 24 23 24C22.4477 24 22 23.5523 22 23C22 22.4477 22.4477 22 23 22C23.5523 22 24 22.4477 24 23ZM30 17C30.5523 17 31 16.5523 31 16C31 15.4477 30.5523 15 30 15C29.4477 15 29 15.4477 29 16C29 16.5523 29.4477 17 30 17Z" fill="black"/>
</svg>
