<svg width="32" height="32" viewBox="0 0 32 32" fill="none" xmlns="http://www.w3.org/2000/svg">
<path fill-rule="evenodd" clip-rule="evenodd" d="M27 5.73244C27.5978 5.38663 28 4.74028 28 4C28 2.89543 27.1046 2 26 2C24.9562 2 24.0992 2.79961 24.008 3.81969L4 9.18082V9H2V14H0V16H4.71115e-05L0 22.3333H18V20.3923L20.4573 16.1362C21.0516 18.3375 23.1582 19.8772 25.524 19.6664L27.8884 19.4487L31.9896 11.9315C31.9896 11.9315 29.5768 12.8106 27 13.1559V5.73244ZM24.1714 4.8112C24.2409 4.96772 24.3299 5.11365 24.4354 5.24591L18 16.3923V15.6667L14 10.3333H7.33333V15.6667H6V14H4V10.2161L24.1714 4.8112ZM26 6.53593L22.2992 12.9458C23.3457 13.1269 24.5582 13.3023 25.2805 13.2915C25.518 13.288 25.7584 13.277 26 13.2598V6.53593ZM5.33333 27C5.33333 26.28 5.94667 25.6667 6.66667 25.6667H22.6667C23.3867 25.6667 24 26.28 24 27C24 27.72 23.3867 28.3333 22.6667 28.3333H6.66667C5.94667 28.3333 5.33333 27.72 5.33333 27ZM22.6667 23.6667H6.66667C4.82667 23.6667 3.33333 25.16 3.33333 27C3.33333 28.84 4.82667 30.3333 6.66667 30.3333H22.6667C24.4933 30.3333 26 28.8267 26 27C26 25.1733 24.4933 23.6667 22.6667 23.6667ZM13.3333 12.3333L15.9467 15.6667H12V12.3333H13.3333ZM11 12.3332H8.62517V15.6719H11V12.3332Z" fill="black"/>
</svg>
