<svg width="32" height="32" viewBox="0 0 32 32" fill="none" xmlns="http://www.w3.org/2000/svg">
<path d="M24.6667 24.6667C25.3867 24.6667 26 25.28 26 26C26 26.72 25.3867 27.3333 24.6667 27.3333H8.66669C7.94669 27.3333 7.33336 26.72 7.33336 26C7.33336 25.28 7.94669 24.6667 8.66669 24.6667H24.6667ZM24.6667 22.6667H8.66669C6.84003 22.6667 5.33336 24.1733 5.33336 26C5.33336 27.8267 6.84003 29.3333 8.66669 29.3333H24.6667C26.5067 29.3333 28 27.84 28 26C28 24.16 26.5067 22.6667 24.6667 22.6667ZM28 14.6667H24V9.33333H17.3334L13.3334 14.6667V21.3333H29.3334L28 14.6667ZM15.3867 14.6667L18 11.3333H21.3334V14.6667H15.3867ZM13.0134 4.54666L6.34669 2.66666L2.66669 15.7733C2.21336 17.48 3.21336 19.2533 4.93336 19.7333L6.48003 20.16L10.8667 16.3867L5.69336 14.9467L8.20003 5.94666L11.92 6.98666C12.6667 7.37333 14.28 8.45333 15.2934 9.82666L16.6667 8H17.2534C15.5734 5.88 13.1334 4.61333 13.0134 4.54666Z" fill="black"/>
</svg>
