<svg width="32" height="32" viewBox="0 0 32 32" fill="none" xmlns="http://www.w3.org/2000/svg">
<path fill-rule="evenodd" clip-rule="evenodd" d="M12.2 6.11765V4.7451L13.3429 3.37255L14.4857 4.05882L16.2 2H17.6286L17.9143 3.71569L19.6286 4.40196L20.2 6.11765H12.2ZM5 17.6471C5 14.1018 6.55444 10.9303 9 8.81534V20.9412C9 21.8508 9.71636 22.5882 10.6 22.5882H15.8V29.1693C12.8255 29.0618 10.146 27.7602 8.20001 25.716V30H6.20001V22.8448C5.43245 21.283 5 19.517 5 17.6471ZM26.2 22.8447C26.9676 21.2829 27.4 19.517 27.4 17.6471C27.4 14.1018 25.8456 10.9303 23.4 8.81534V20.9412C23.4 21.8508 22.6836 22.5882 21.8 22.5882H16.6V29.1693C19.5746 29.0618 22.254 27.7602 24.2 25.716V30H26.2V22.8447ZM21.8 6.94118H10.6V18.4706H21.8V6.94118ZM13.8 19.2941H18.6V20.9412H13.8V19.2941ZM13 21.7647V19.2941H11.4V21.7647H13ZM19.4 19.2941H21V21.7647H19.4V19.2941Z" fill="black"/>
</svg>
