<svg width="32" height="32" viewBox="0 0 32 32" fill="none" xmlns="http://www.w3.org/2000/svg">
<path fill-rule="evenodd" clip-rule="evenodd" d="M7.95681 4C8.50909 4 8.95681 3.55228 8.95681 3C8.95681 2.44772 8.50909 2 7.95681 2C7.40453 2 6.95681 2.44772 6.95681 3C6.95681 3.55228 7.40453 4 7.95681 4ZM27.5334 2.7524L25.0334 2.2524L22.5334 4.2524L25.5334 7.2524H28.0334L30.5851 5.66858L27.5334 2.7524ZM4 25.0878L1 26.0878L2.49999 29.5878L4.99999 30.0878L8.49999 26.0878L4 25.0878ZM4.87723 9.18899L4.26792 9.30674L1.95681 17.5136L5.2383 19.9552L7.40029 13.4692L4.87723 9.18899ZM6.92753 21.212L10.6235 23.9619H23.9124L26.6603 15.5978L14.9924 15.9655L9.12538 14.6185L6.92753 21.212ZM27.3246 13.5759L15.1879 13.9583L9.19984 12.5835L6.96142 8.78621L16.1102 7.01817C16.3001 6.98145 16.4967 7.00064 16.676 7.0734L27.0913 11.3003C27.5785 11.498 27.8294 12.0394 27.6652 12.539L27.3246 13.5759ZM20.9568 30C21.5091 30 21.9568 29.5523 21.9568 29C21.9568 28.4477 21.5091 28 20.9568 28C20.4045 28 19.9568 28.4477 19.9568 29C19.9568 29.5523 20.4045 30 20.9568 30ZM14.9568 27C14.9568 27.5523 14.5091 28 13.9568 28C13.4045 28 12.9568 27.5523 12.9568 27C12.9568 26.4477 13.4045 26 13.9568 26C14.5091 26 14.9568 26.4477 14.9568 27Z" fill="black"/>
</svg>
