<svg width="32" height="32" viewBox="0 0 32 32" fill="none" xmlns="http://www.w3.org/2000/svg">
<path fill-rule="evenodd" clip-rule="evenodd" d="M14.872 11.0771H11.6056V4H20.3159L20.3159 7.26634H21.4047V4H23.5822L24.671 4.87102V11.9481L23.5822 11.0771H15.9608V8.35512H14.872V11.0771ZM8.3393 5.45171L10.5169 4V11.0771L8.3393 12.5288V5.45171ZM7.25052 6.17756V13.2546H3.98418L0.460333 15.457C0.209413 15.6139 -0.0929848 15.3512 0.0271906 15.0808L3.98418 6.17756H7.25052ZM25.7598 12.8191L25.7598 5.74205L26.3042 6.17756L31.807 14.6819C31.9632 14.9234 31.7229 15.2251 31.4526 15.1268L26.3042 13.2546L25.7598 12.8191ZM14.872 24.1424H11.6056V17.0654H20.3159L20.3159 20.3317H21.4047V17.0654H23.5822L24.671 17.9364V25.0135L23.5822 24.1424H15.9608V21.4205H14.872V24.1424ZM8.3393 18.5171L10.5169 17.0654V24.1424L8.3393 25.5941V18.5171ZM7.25052 19.2429V26.32H3.98418L0.460333 28.5224C0.209413 28.6792 -0.0929848 28.4166 0.0271906 28.1462L3.98418 19.2429H7.25052ZM25.7598 25.8845L25.7598 18.8074L26.3042 19.2429L31.807 27.7472C31.9632 27.9887 31.7229 28.2904 31.4526 28.1921L26.3042 26.32L25.7598 25.8845Z" fill="black"/>
</svg>
