<svg width="64" height="32" viewBox="0 0 64 32" fill="none" xmlns="http://www.w3.org/2000/svg">
<path fill-rule="evenodd" clip-rule="evenodd" d="M29 11H3V9.93333L3.5 6.73334L6.5 5.13333L9 4.60001L10 7.26666L12 6.2L15 8.33333V6.2L17.5 3L21.5 3.53334L22 5.66667L23.5 8.33333L26.5 7.26666L29 11ZM31 14.8333V12H1V14.8333L2.36365 16.7175V23.3333H1V26.1667H2.36365C2.36365 27.7392 3.59094 29 5.09094 29C6.59094 29 7.81824 27.7392 7.81824 26.1667H13.2727L14.6364 27.5833H17.3636L18.7273 26.1667H24.1818C24.1818 27.7392 25.4091 29 26.9091 29C28.4091 29 29.6364 27.7392 29.6364 26.1667H31V23.3333H29.6364V16.7175L31 14.8333ZM5.09094 23.3333V20.5L7.13635 23.3333H5.09094ZM6.45459 16.25V14.8333H25.5454V16.25H6.45459ZM26.9091 23.3333H24.8636L26.9091 20.5V23.3333ZM32.9354 11V12.1847V15.3439H32V21.5305H41.4883V15.3439H40.5529V12.1847H42.0897V11H32.9354ZM34.1382 12.1847H35.0737V15.3439H34.1382V12.1847ZM36.2764 12.1847H39.3501V15.3439H36.2764V12.1847ZM42.691 15.3969V21.5305H61.3335C63.739 21.5305 63.739 15.3969 61.3335 15.3969H42.691ZM61.3987 22.7129V22.7152H61.8644C61.98 23.6402 62.2177 24.7299 62.5477 25.7719C62.7897 26.5357 63.0669 27.2442 63.3987 27.8489H59.7966V24.9197L59.7076 24.7416H45.0896L44.604 25.7129H40.4702L40.2411 24.7416H32.8438L32.6146 25.7129H32.001V22.0138H41.386L41.9176 22.7129H61.3987ZM46.3986 17H59.3986V18H46.3986V17ZM59.3987 19H46.3987V20H59.3987V19ZM59.3812 26.3249L59.0896 25.7416H53.4095C53.4023 25.8268 53.3987 25.913 53.3987 26C53.3987 27.6569 54.7418 29 56.3987 29C57.9457 29 59.2192 27.8289 59.3812 26.3249ZM51.3877 25.7416H45.7076L45.416 26.3249C45.578 27.8289 46.8516 29 48.3987 29C50.0554 29 51.3987 27.6569 51.3987 26C51.3987 25.913 51.3949 25.8268 51.3877 25.7416ZM36.5547 29C34.9243 29 33.5977 27.6994 33.5557 26.0791L33.6353 25.7416H39.4496L39.55 26.1678C39.463 27.7466 38.1553 29 36.5547 29Z" fill="black"/>
</svg>
