<svg width="32" height="32" viewBox="0 0 32 32" fill="none" xmlns="http://www.w3.org/2000/svg">
<path fill-rule="evenodd" clip-rule="evenodd" d="M3.5 8H10.1667L10.7917 9.25H28.9167L31 13L13.0833 17.1667L9.13597 9.66667H3.5V8ZM5.16667 11.3333H9.33333V16.4167C10.3502 16.6231 11.2326 17.1998 11.8336 18H20.9997C21.7599 16.988 22.9702 16.3333 24.3333 16.3333C26.6345 16.3333 28.5 18.1988 28.5 20.5C28.5 22.8012 26.6345 24.6667 24.3333 24.6667C22.0321 24.6667 20.1667 22.8012 20.1667 20.5H12.6667C12.6667 22.8012 10.8012 24.6667 8.5 24.6667C6.19881 24.6667 4.33333 22.8012 4.33333 20.5H1V13H4.33333L5.16667 11.3333ZM8.5 12.1667H6L5.16667 13.8333H8.5V12.1667ZM8.5 22.1667C9.42047 22.1667 10.1667 21.4205 10.1667 20.5C10.1667 19.5795 9.42047 18.8333 8.5 18.8333C7.57952 18.8333 6.83333 19.5795 6.83333 20.5C6.83333 21.4205 7.57952 22.1667 8.5 22.1667ZM24.3333 22.1667C25.2538 22.1667 26 21.4205 26 20.5C26 19.5795 25.2538 18.8333 24.3333 18.8333C23.4129 18.8333 22.6667 19.5795 22.6667 20.5C22.6667 21.4205 23.4129 22.1667 24.3333 22.1667Z" fill="black"/>
</svg>
