<svg width="32" height="32" viewBox="0 0 32 32" fill="none" xmlns="http://www.w3.org/2000/svg">
<path fill-rule="evenodd" clip-rule="evenodd" d="M18 5C18 5.55228 17.5523 6 17 6C16.4477 6 16 5.55228 16 5C16 4.44772 16.4477 4 17 4C17.5523 4 18 4.44772 18 5ZM22.0688 10.0853L25.227 9.92379L24.7173 6.15017L22.442 5L18 7.91867L22.0688 10.0853ZM12.0432 10.0878L15.0432 9.0878L19.5432 10.0878L16.0432 14.0878L13.5432 13.5878L12.0432 10.0878ZM19.157 16.12L22.511 17.4443L6.2 21.5071L1 19.7843V17.0714L6.2 19.0643L19.157 16.12ZM8.8 10L13.141 14.3971L6.2 16.3643L1 14.6414V10H8.8ZM1 22.4971L6.2 24.2071L24.539 19.4886L31 28H1V22.4971ZM24.5766 11.7524L22.0766 11.2524L19.5766 13.2524L22.5766 16.2524H25.0766L27.6283 14.6686L24.5766 11.7524ZM11 9C11.5523 9 12 8.55228 12 8C12 7.44772 11.5523 7 11 7C10.4477 7 10 7.44772 10 8C10 8.55228 10.4477 9 11 9Z" fill="black"/>
</svg>
