<svg width="32" height="32" viewBox="0 0 32 32" fill="none" xmlns="http://www.w3.org/2000/svg">
<path fill-rule="evenodd" clip-rule="evenodd" d="M3 10H29L26.5 6.26667L23.5 7.33333L22 4.66667L21.5 2.53333L17.5 2L15 5.2V7.33333L12 5.2L10 6.26667L9 3.6L6.5 4.13333L3.5 5.73333L3 8.93333V10ZM1 24.3333V11H31V24.3333H29.6364C29.6364 25.8133 28.4091 27 26.9091 27C25.4091 27 24.1818 25.8133 24.1818 24.3333H7.81818C7.81818 25.8133 6.59091 27 5.09091 27C3.59091 27 2.36364 25.8133 2.36364 24.3333H1Z" fill="black"/>
</svg>
